<svg xmlns="http://www.w3.org/2000/svg" xmlns:svg="http://www.w3.org/2000/svg" id="svg903" width="32" height="32" version="1.1" viewBox="0 0 8.467 8.467"><metadata id="metadata900"/><g id="layer1" transform="translate(0,-288.53332)"><path id="rect5505-67" d="m 1.190625,289.0625 c -0.36644791,0 -0.66145833,0.29501 -0.66145833,0.66146 v 6.08542 c 0,0.36644 0.29501042,0.66145 0.66145833,0.66145 h 6.0854167 c 0.3664479,0 0.6614583,-0.29501 0.6614583,-0.66145 v -6.08542 c 0,-0.36645 -0.2950104,-0.66146 -0.6614583,-0.66146 z m 0,0.26458 h 6.0854167 c 0.2198687,0 0.396875,0.17701 0.396875,0.39688 v 6.08542 c 0,0.21986 -0.1770063,0.39687 -0.396875,0.39687 H 1.190625 c -0.21986875,0 -0.396875,-0.17701 -0.396875,-0.39687 v -6.08542 c 0,-0.21987 0.17700625,-0.39688 0.396875,-0.39688 z" style="color:#000;display:inline;overflow:visible;visibility:visible;opacity:1;vector-effect:none;fill:#555761;fill-opacity:1;fill-rule:nonzero;stroke:none;stroke-width:.26458332;stroke-linecap:butt;stroke-linejoin:miter;stroke-miterlimit:4;stroke-dasharray:none;stroke-dashoffset:0;stroke-opacity:1;marker:none;paint-order:normal;enable-background:accumulate"/><rect id="rect5505" width="6.879" height="6.879" x=".794" y="289.327" rx=".397" ry=".397" style="color:#000;display:inline;overflow:visible;visibility:visible;opacity:.1;vector-effect:none;fill:#555761;fill-opacity:1;fill-rule:nonzero;stroke:none;stroke-width:.26458332;stroke-linecap:round;stroke-linejoin:round;stroke-miterlimit:4;stroke-dasharray:none;stroke-dashoffset:0;stroke-opacity:1;marker:none;paint-order:normal;enable-background:accumulate"/></g></svg>