<svg xmlns="http://www.w3.org/2000/svg" xmlns:svg="http://www.w3.org/2000/svg" id="svg4405" width="48" height="48" version="1.1"><metadata id="metadata4410"/><rect id="rect5505" width="38" height="38" x="5" y="6" rx="2.5" ry="2.5" style="color:#000;display:inline;overflow:visible;visibility:visible;opacity:.1;vector-effect:none;fill:#555761;fill-opacity:1;fill-rule:nonzero;stroke:none;stroke-width:.99999988;stroke-linecap:round;stroke-linejoin:round;stroke-miterlimit:4;stroke-dasharray:none;stroke-dashoffset:0;stroke-opacity:1;marker:none;paint-order:normal;enable-background:accumulate;font-variant-east_asian:normal"/><path id="rect860" d="M 7.5 5 C 5.561 5 4 6.561 4 8.5 L 4 41.5 C 4 43.439 5.561 45 7.5 45 L 40.5 45 C 42.439 45 44 43.439 44 41.5 L 44 8.5 C 44 6.561 42.439 5 40.5 5 L 7.5 5 z M 7.5 6 L 40.5 6 C 41.885 6 43 7.115 43 8.5 L 43 41.5 C 43 42.885 41.885 44 40.5 44 L 7.5 44 C 6.115 44 5 42.885 5 41.5 L 5 8.5 C 5 7.115 6.115 6 7.5 6 z" style="opacity:1;vector-effect:none;fill:#555761;fill-opacity:1;stroke:none;stroke-width:.99999994;stroke-linecap:butt;stroke-linejoin:miter;stroke-miterlimit:4;stroke-dasharray:none;stroke-dashoffset:0;stroke-opacity:1;marker:none;paint-order:normal;font-variant-east_asian:normal"/></svg>